<svg xmlns="http://www.w3.org/2000/svg" xmlns:xlink="http://www.w3.org/1999/xlink" width="38.311" height="32.094" viewBox="0 0 38.311 32.094"><defs><style>.a{fill:#fff;}.b{filter:url(#e);}.c{filter:url(#c);}.d{filter:url(#a);}</style><filter id="a" x="15.181" y="3.914" width="19.722" height="23.735" filterUnits="userSpaceOnUse"><feOffset dy="3" input="SourceAlpha"/><feGaussianBlur stdDeviation="3" result="b"/><feFlood flood-opacity="0.161"/><feComposite operator="in" in2="b"/><feComposite in="SourceGraphic"/></filter><filter id="c" x="17.754" y="1.936" width="20.557" height="27.683" filterUnits="userSpaceOnUse"><feOffset dy="3" input="SourceAlpha"/><feGaussianBlur stdDeviation="3" result="d"/><feFlood flood-opacity="0.161"/><feComposite operator="in" in2="d"/><feComposite in="SourceGraphic"/></filter><filter id="e" x="0" y="0" width="30.495" height="32.094" filterUnits="userSpaceOnUse"><feOffset dy="3" input="SourceAlpha"/><feGaussianBlur stdDeviation="3" result="f"/><feFlood flood-opacity="0.161"/><feComposite operator="in" in2="f"/><feComposite in="SourceGraphic"/></filter></defs><g transform="translate(8.517 -4.007)"><g class="d" transform="matrix(1, 0, 0, 1, -8.52, 4.01)"><path class="a" d="M47.7,22.379a.337.337,0,0,0,0,.477,3.241,3.241,0,0,1,0,4.583.337.337,0,1,0,.476.477,3.915,3.915,0,0,0,0-5.537A.337.337,0,0,0,47.7,22.379Z" transform="translate(-23.42 -12.37)"/></g><g class="c" transform="matrix(1, 0, 0, 1, -8.52, 4.01)"><path class="a" d="M56.168,16.105a.341.341,0,0,0-.477,0,.332.332,0,0,0,0,.472,6.005,6.005,0,0,1,0,8.544.332.332,0,0,0,0,.472.34.34,0,0,0,.477,0A6.67,6.67,0,0,0,56.168,16.105Z" transform="translate(-28.84 -8.07)"/></g><g class="b" transform="matrix(1, 0, 0, 1, -8.52, 4.01)"><path class="a" d="M12.3,10.007a.678.678,0,0,0-.251.048L4.542,13.036v0a2.764,2.764,0,0,0-2.6,2.085,2,2,0,0,0,0,3.856,2.764,2.764,0,0,0,2.6,2.085v0l7.511,2.981a.674.674,0,0,0,.925-.622V10.677A.673.673,0,0,0,12.3,10.007ZM1.157,17.054a1.339,1.339,0,0,1,.7-1.174v2.347A1.339,1.339,0,0,1,1.157,17.054ZM2.55,18.586a2.593,2.593,0,0,1-.019-.266V15.788a2.593,2.593,0,0,1,.019-.267,2.093,2.093,0,0,1,1.992-1.814V20.4A2.093,2.093,0,0,1,2.55,18.586ZM12.3,23.43,5.217,20.618V13.49L12.3,10.677Z" transform="translate(8.52 -4.01)"/></g></g></svg>