<svg xmlns="http://www.w3.org/2000/svg" xmlns:xlink="http://www.w3.org/1999/xlink" width="32" height="32" viewBox="0 0 32 32"><defs><style>.a{fill:#fff;}.b{filter:url(#e);}.c{filter:url(#c);}.d{filter:url(#a);}</style><filter id="a" x="0" y="0" width="22.026" height="32" filterUnits="userSpaceOnUse"><feOffset dy="3" input="SourceAlpha"/><feGaussianBlur stdDeviation="3" result="b"/><feFlood flood-opacity="0.161"/><feComposite operator="in" in2="b"/><feComposite in="SourceGraphic"/></filter><filter id="c" x="4.987" y="0" width="22.026" height="32" filterUnits="userSpaceOnUse"><feOffset dy="3" input="SourceAlpha"/><feGaussianBlur stdDeviation="3" result="d"/><feFlood flood-opacity="0.161"/><feComposite operator="in" in2="d"/><feComposite in="SourceGraphic"/></filter><filter id="e" x="9.974" y="0" width="22.026" height="31.998" filterUnits="userSpaceOnUse"><feOffset dy="3" input="SourceAlpha"/><feGaussianBlur stdDeviation="3" result="f"/><feFlood flood-opacity="0.161"/><feComposite operator="in" in2="f"/><feComposite in="SourceGraphic"/></filter></defs><g transform="translate(9 5.496)"><g class="d" transform="matrix(1, 0, 0, 1, -9, -5.5)"><path class="a" d="M2.24,6.074V.5H1.792V6.073a2,2,0,0,0,0,3.976V14.5h.443V10.048a2,2,0,0,0,0-3.974ZM2.013,9.617A1.556,1.556,0,1,1,3.579,8.061,1.562,1.562,0,0,1,2.013,9.617Z" transform="translate(9 5.5)"/></g><g class="c" transform="matrix(1, 0, 0, 1, -9, -5.5)"><path class="a" d="M25.237,2.3V.5H24.79V2.3a2,2,0,0,0,0,3.975V14.5h.442V6.27a2,2,0,0,0,0-3.975Zm-.224,3.543a1.556,1.556,0,1,1,1.565-1.556A1.562,1.562,0,0,1,25.013,5.838Z" transform="translate(-9.01 5.5)"/></g><g class="b" transform="matrix(1, 0, 0, 1, -9, -5.5)"><path class="a" d="M50.025,9.172a2,2,0,0,0-1.789-1.987V.5h-.447V7.185a2,2,0,0,0,0,3.975V14.5h.439V11.16A2,2,0,0,0,50.025,9.172Zm-2.013,1.556a1.556,1.556,0,1,1,1.565-1.556A1.562,1.562,0,0,1,48.013,10.728Z" transform="translate(-27.03 5.5)"/></g></g></svg>