<svg xmlns="http://www.w3.org/2000/svg" xmlns:xlink="http://www.w3.org/1999/xlink" width="40" height="40" viewBox="0 0 40 40"><defs><style>.a{fill:#fff;}.b{filter:url(#c);}.c{filter:url(#a);}</style><filter id="a" x="9.059" y="7.855" width="24.291" height="24.29" filterUnits="userSpaceOnUse"><feOffset dy="3" input="SourceAlpha"/><feGaussianBlur stdDeviation="2.5" result="b"/><feFlood flood-opacity="0.161"/><feComposite operator="in" in2="b"/><feComposite in="SourceGraphic"/></filter><filter id="c" x="0" y="0" width="40" height="40" filterUnits="userSpaceOnUse"><feOffset dy="3" input="SourceAlpha"/><feGaussianBlur stdDeviation="2.5" result="d"/><feFlood flood-opacity="0.161"/><feComposite operator="in" in2="d"/><feComposite in="SourceGraphic"/></filter></defs><g transform="translate(7.5 4.5)"><g class="c" transform="matrix(1, 0, 0, 1, -7.5, -4.5)"><path class="a" d="M32.816,24.873l-8.476-4.238A.407.407,0,0,0,23.75,21v8.476a.407.407,0,0,0,.589.364L32.816,25.6a.407.407,0,0,0,0-.729Zm-8.251,3.944V21.658l7.158,3.579Z" transform="translate(-7.19 -8.24)"/></g><g class="b" transform="matrix(1, 0, 0, 1, -7.5, -4.5)"><path class="a" d="M12.5,0A12.5,12.5,0,1,0,25,12.5,12.5,12.5,0,0,0,12.5,0Zm0,24.219A11.719,11.719,0,1,1,24.219,12.5,11.732,11.732,0,0,1,12.5,24.219Z" transform="translate(7.5 4.5)"/></g></g></svg>