<svg xmlns="http://www.w3.org/2000/svg" xmlns:xlink="http://www.w3.org/1999/xlink" width="35" height="31" viewBox="0 0 35 31"><defs><style>.a{fill:#fff;}.b{filter:url(#a);}</style><filter id="a" x="0" y="0" width="35" height="31" filterUnits="userSpaceOnUse"><feOffset dy="3" input="SourceAlpha"/><feGaussianBlur stdDeviation="3" result="b"/><feFlood flood-opacity="0.161"/><feComposite operator="in" in2="b"/><feComposite in="SourceGraphic"/></filter></defs><g class="b" transform="matrix(1, 0, 0, 1, 0, 0)"><path class="a" d="M14.561,4.194a.329.329,0,0,0,.459.01L16.9,2.425a.312.312,0,0,0,0-.456L15.018.209a.33.33,0,0,0-.459.01.3.3,0,0,0,.01.44l1.3,1.206H13.261a3.622,3.622,0,0,0-2.846,1.392L8.191,6.095l-3.213-4.1a.333.333,0,0,0-.257-.13H.324a.317.317,0,1,0,0,.634H4.56L7.782,6.62,4.56,10.741H.324a.317.317,0,1,0,0,.634h4.4a.334.334,0,0,0,.257-.132l3.213-4.1,2.223,2.838a3.622,3.622,0,0,0,2.848,1.392h2.606l-1.3,1.206a.308.308,0,0,0-.076.345.32.32,0,0,0,.3.2.329.329,0,0,0,.224-.089l1.882-1.76a.313.313,0,0,0,0-.457l-1.882-1.78a.33.33,0,0,0-.459.007.322.322,0,0,0,.008.456l1.306,1.243H13.261A2.967,2.967,0,0,1,10.929,9.6L8.6,6.624l2.332-2.981A2.968,2.968,0,0,1,13.261,2.5h2.613L14.568,3.741A.317.317,0,0,0,14.561,4.194Zm0,0" transform="translate(9 5.88)"/></g></svg>