<svg xmlns="http://www.w3.org/2000/svg" xmlns:xlink="http://www.w3.org/1999/xlink" width="30.225" height="31.598" viewBox="0 0 30.225 31.598"><defs><style>.a,.b{fill:#fff;}.a{opacity:0;}.c{filter:url(#a);}</style><filter id="a" x="0" y="0" width="30.225" height="31.598" filterUnits="userSpaceOnUse"><feOffset dy="3" input="SourceAlpha"/><feGaussianBlur stdDeviation="3" result="b"/><feFlood flood-opacity="0.161"/><feComposite operator="in" in2="b"/><feComposite in="SourceGraphic"/></filter></defs><g transform="translate(6.954 4.639)"><rect class="a" width="16.316" height="16.316"/><g class="c" transform="matrix(1, 0, 0, 1, -6.95, -4.64)"><path class="b" d="M14.914,10.982,13.69,9.751V6.719A4.664,4.664,0,0,0,9.733,2.042a4.582,4.582,0,0,0-5.18,4.535V9.751L3.329,10.982a1.115,1.115,0,0,0,.789,1.9H6.4v.231A2.611,2.611,0,0,0,9.122,15.6a2.611,2.611,0,0,0,2.719-2.488v-.231h2.284a1.115,1.115,0,0,0,.789-1.9Zm-4.433,2.128a1.278,1.278,0,0,1-1.36,1.129,1.278,1.278,0,0,1-1.36-1.129v-.231h2.719ZM4.709,11.519l.8-.8a1.36,1.36,0,0,0,.4-.965V6.576a3.216,3.216,0,0,1,1.1-2.42,3.175,3.175,0,0,1,2.543-.8A3.3,3.3,0,0,1,12.33,6.692V9.751a1.36,1.36,0,0,0,.394.965l.809.8Z" transform="translate(5.99 4)"/></g></g></svg>