<svg xmlns="http://www.w3.org/2000/svg" xmlns:xlink="http://www.w3.org/1999/xlink" width="34" height="32" viewBox="0 0 34 32"><defs><style>.a{fill:#fff;}.b{filter:url(#c);}.c{filter:url(#a);}</style><filter id="a" x="1.299" y="0" width="32.701" height="25.454" filterUnits="userSpaceOnUse"><feOffset dy="3" input="SourceAlpha"/><feGaussianBlur stdDeviation="3" result="b"/><feFlood flood-opacity="0.161"/><feComposite operator="in" in2="b"/><feComposite in="SourceGraphic"/></filter><filter id="c" x="0" y="6.546" width="32.701" height="25.454" filterUnits="userSpaceOnUse"><feOffset dy="3" input="SourceAlpha"/><feGaussianBlur stdDeviation="3" result="d"/><feFlood flood-opacity="0.161"/><feComposite operator="in" in2="d"/><feComposite in="SourceGraphic"/></filter></defs><g transform="translate(9 1.604)"><g class="c" transform="matrix(1, 0, 0, 1, -9, -1.6)"><path class="a" d="M19.654,9.925a.246.246,0,0,0-.354.04l-.74.953A6.954,6.954,0,0,0,11.729,4.4,6.871,6.871,0,0,0,5.054,9.859a.26.26,0,0,0,.188.312.251.251,0,0,0,.3-.194,6.366,6.366,0,0,1,6.185-5.061,6.443,6.443,0,0,1,6.33,6.045l-.847-.786a.246.246,0,0,0-.355.019.265.265,0,0,0,.019.367l1.318,1.223a.247.247,0,0,0,.168.067h.021a.249.249,0,0,0,.176-.1l1.135-1.463A.265.265,0,0,0,19.654,9.925Z" transform="translate(5.25 1.6)"/></g><g class="b" transform="matrix(1, 0, 0, 1, -9, -1.6)"><path class="a" d="M14.506,32.319a.25.25,0,0,0-.3.194,6.366,6.366,0,0,1-6.185,5.061,6.443,6.443,0,0,1-6.33-6.045l.847.786a.246.246,0,0,0,.355-.019.266.266,0,0,0-.019-.367L1.555,30.706a.246.246,0,0,0-.365.031L.055,32.2a.265.265,0,0,0,.039.365.245.245,0,0,0,.157.057.248.248,0,0,0,.2-.1l.74-.953a6.954,6.954,0,0,0,6.831,6.523,6.871,6.871,0,0,0,6.675-5.463A.26.26,0,0,0,14.506,32.319Z" transform="translate(9 -18.09)"/></g></g></svg>