<svg xmlns="http://www.w3.org/2000/svg" width="21.435" height="19.299" viewBox="0 0 21.435 19.299"><defs><style>.a{fill:#2bbdc4;}.b{fill:#495d85;}.c{fill:#e9eef0;}</style></defs><g transform="translate(0.001)"><path class="a" d="M30.823,19.739H29.1a.818.818,0,0,1-.827-.715,7.72,7.72,0,0,0-7.754-6.6,7.72,7.72,0,0,0-7.754,6.6.818.818,0,0,1-.827.715H10.219c0-5.385,4.751-9.75,10.3-9.75S30.823,14.354,30.823,19.739Zm0,0" transform="translate(-9.804 -9.582)"/><path class="b" d="M450.417,249.773h1.625a9.767,9.767,0,0,1-.536,3.078h0l-.057-.017-1.515-.406A7.874,7.874,0,0,0,450.417,249.773Zm0,0" transform="translate(-431.023 -239.617)"/><path class="c" d="M416.015,316.448l-1.052,3.924a.813.813,0,0,1-1,.575l-1.57-.421s1.468-5.316,1.526-5.479l1.515.406A.813.813,0,0,1,416.015,316.448Zm0,0" transform="translate(-395.014 -302.236)"/><path class="b" d="M335.114,286.283a.812.812,0,0,1-.574-.995l1.472-5.494a.812.812,0,0,1,1-.575l1.57.42a.812.812,0,0,1,.575.995l-.133.5-1.339,5a.813.813,0,0,1-1,.575Zm0,0" transform="translate(-320.295 -267.839)"/><path class="b" d="M65.2,286.7a.813.813,0,0,1-.995-.575l-1.472-5.494a.813.813,0,0,1,.575-.995l1.57-.42a.812.812,0,0,1,1,.574l1.472,5.494a.812.812,0,0,1-.575.995Zm0,0" transform="translate(-60.156 -267.839)"/><path class="c" d="M13.623,320.526l-1.57.421a.813.813,0,0,1-.995-.575l-1.052-3.924a.813.813,0,0,1,.518-.978l.057-.017,1.515-.406C12.155,315.21,13.623,320.526,13.623,320.526Zm0,0" transform="translate(-9.574 -302.236)"/><path class="b" d="M12.327,252.431l-1.515.406-.057.017h0a9.768,9.768,0,0,1-.536-3.077h1.625A7.875,7.875,0,0,0,12.327,252.431Zm0,0" transform="translate(-9.804 -239.621)"/><path d="M20.955,13.043a9.585,9.585,0,0,0,.47-2.887A9.808,9.808,0,0,0,18.232,2.97,11,11,0,0,0,10.717,0C4.947,0,.009,4.535.009,10.157a9.585,9.585,0,0,0,.47,2.887,1.205,1.205,0,0,0-.437,1.273l1.083,3.924a1.258,1.258,0,0,0,1.537.862l1.282-.334a1.276,1.276,0,0,0,1.359.488l1.616-.421a1.217,1.217,0,0,0,.887-1.492L6.29,11.85a1.261,1.261,0,0,0-1.537-.862l-1.616.42a1.261,1.261,0,0,0-.453.221,6.973,6.973,0,0,1-.156-1.124,1.2,1.2,0,0,0,.86-1.025A7.336,7.336,0,0,1,10.717,3.25a7.336,7.336,0,0,1,7.328,6.231,1.2,1.2,0,0,0,.86,1.025,6.973,6.973,0,0,1-.156,1.124,1.263,1.263,0,0,0-.453-.221l-1.616-.42a1.261,1.261,0,0,0-1.537.862l-1.515,5.494a1.217,1.217,0,0,0,.887,1.492l1.617.421a1.276,1.276,0,0,0,1.359-.488l1.282.334a1.259,1.259,0,0,0,1.536-.862l1.083-3.925A1.206,1.206,0,0,0,20.955,13.043Zm-17.6-.85,1.616-.421a.42.42,0,0,1,.513.287L7,17.554a.406.406,0,0,1-.3.5l-.4.105L5.54,15.41a.42.42,0,0,0-.512-.287.405.405,0,0,0-.3.5l.758,2.747-.4.105a.421.421,0,0,1-.512-.288h0L3.057,12.691A.406.406,0,0,1,3.353,12.194ZM3.657,18l-1.212.316a.42.42,0,0,1-.513-.288L.85,14.107a.406.406,0,0,1,.269-.49l.027-.008L2.341,13.3C2.463,13.594,2.24,12.916,3.657,18Zm-2.8-7.44h.837a8.058,8.058,0,0,0,.368,1.967l-.8.21A9.028,9.028,0,0,1,.857,10.563ZM18.878,9.4a8.127,8.127,0,0,0-8.161-6.965A8.127,8.127,0,0,0,2.556,9.4a.405.405,0,0,1-.41.348H.856C1.09,4.865,5.51.812,10.717.812s9.627,4.053,9.861,8.938h-1.29A.405.405,0,0,1,18.878,9.4Zm1.7,1.161a9.036,9.036,0,0,1-.4,2.176l-.8-.209a8.062,8.062,0,0,0,.368-1.967Zm-3.716,7.622h0a.421.421,0,0,1-.512.288l-.4-.105L16.7,15.62a.405.405,0,0,0-.3-.5.42.42,0,0,0-.512.287l-.758,2.747-.4-.105a.406.406,0,0,1-.3-.5l1.515-5.494a.417.417,0,0,1,.4-.3.432.432,0,0,1,.108.014l1.616.42a.406.406,0,0,1,.3.5Zm3.723-4.078L19.5,18.031a.42.42,0,0,1-.512.287L17.777,18c1.418-5.089,1.194-4.408,1.316-4.7,1.273.332,1.2.311,1.225.32A.4.4,0,0,1,20.584,14.107Zm0,0" transform="translate(0 0)"/></g></svg>