<svg id="lock" xmlns="http://www.w3.org/2000/svg" width="20" height="20" viewBox="0 0 20 20">
  <rect id="bg" width="20" height="20" fill="none"/>
  <g id="lock-2" data-name="lock" transform="translate(2.5)">
    <path id="Icon_ionic-ios-lock" data-name="Icon ionic-ios-lock" d="M16.125,6.925H15V4.675A4.608,4.608,0,0,0,10.558,0,4.567,4.567,0,0,0,6,4.583V6.925H4.875A1.9,1.9,0,0,0,3,8.842v9.233A1.908,1.908,0,0,0,4.875,20h11.25A1.908,1.908,0,0,0,18,18.075V8.842a1.9,1.9,0,0,0-1.875-1.917Zm-5,6v3.333a.683.683,0,0,1-.625.692.675.675,0,0,1-.692-.65V12.967a1.533,1.533,0,0,1-.833-1.525,1.5,1.5,0,1,1,2.15,1.525Zm2.5-6H7.317V4.617A3.267,3.267,0,0,1,8.25,2.308a3.117,3.117,0,0,1,4.4-.1l.1.1a3.333,3.333,0,0,1,.942,2.308Z" transform="translate(-3)" fill="gray"/>
  </g>
</svg>
