<svg xmlns="http://www.w3.org/2000/svg" width="24" height="18.616" viewBox="0 0 24 18.616"><defs><style>.a{fill:#7a7a7a;}</style></defs><g transform="translate(-131.352 -262.066)"><path class="a" d="M306.923,270.047H288.787a.543.543,0,0,0-.465.6v1.195a.543.543,0,0,0,.465.6h18.136a.543.543,0,0,0,.465-.6v-1.195A.543.543,0,0,0,306.923,270.047Z" transform="translate(-152.036 -7.683)"/><path class="a" d="M133.359,262.066h-1.505a.555.555,0,0,0-.5.6v1.792a.555.555,0,0,0,.5.6h1.505a.555.555,0,0,0,.5-.6v-1.792A.555.555,0,0,0,133.359,262.066Z"/><path class="a" d="M306.923,478.916H288.787a.543.543,0,0,0-.465.6v1.195a.543.543,0,0,0,.465.6h18.136a.543.543,0,0,0,.465-.6v-1.195A.543.543,0,0,0,306.923,478.916Z" transform="translate(-152.036 -208.736)"/><path class="a" d="M133.359,470.934h-1.505a.556.556,0,0,0-.5.6v1.792a.556.556,0,0,0,.5.6h1.505a.556.556,0,0,0,.5-.6v-1.792A.556.556,0,0,0,133.359,470.934Z" transform="translate(0 -201.053)"/><path class="a" d="M306.923,687.766H288.787a.543.543,0,0,0-.465.6v1.195a.543.543,0,0,0,.465.6h18.136a.543.543,0,0,0,.465-.6v-1.195A.543.543,0,0,0,306.923,687.766Z" transform="translate(-152.036 -409.772)"/><path class="a" d="M133.359,679.784h-1.505a.556.556,0,0,0-.5.6v1.792a.555.555,0,0,0,.5.6h1.505a.555.555,0,0,0,.5-.6v-1.792A.556.556,0,0,0,133.359,679.784Z" transform="translate(0 -402.089)"/></g></svg>