<svg xmlns="http://www.w3.org/2000/svg" width="18.462" height="24" viewBox="0 0 18.462 24"><defs><style>.a{fill:#3f668d;}.b{fill:#3e68b7;}</style></defs><g transform="translate(0)"><path class="a" d="M208.615,97.846h-.923v-.923a.923.923,0,0,0-1.846,0v.923h-3.692v-.923a.923.923,0,1,0-1.846,0v.923h-3.692v-.923a.923.923,0,1,0-1.846,0v.923h-.923A1.852,1.852,0,0,0,192,99.692v18.462A1.852,1.852,0,0,0,193.846,120h14.769a1.852,1.852,0,0,0,1.846-1.846V99.692A1.852,1.852,0,0,0,208.615,97.846Zm0,20.308H193.846V99.692h14.769Z" transform="translate(-192 -96)"/><path class="b" d="M330.154,352h-9.231a.923.923,0,0,0,0,1.846h9.231a.923.923,0,0,0,0-1.846Zm0,4.615h-9.231a.923.923,0,0,0,0,1.846h9.231a.923.923,0,0,0,0-1.846Zm0,4.615h-9.231a.923.923,0,0,0,0,1.846h9.231a.923.923,0,0,0,0-1.846Z" transform="translate(-316.308 -344.615)"/></g></svg>