<svg xmlns="http://www.w3.org/2000/svg" width="14.23" height="15.825" viewBox="0 0 14.23 15.825"><defs><style>.a{fill:#464b52;}</style></defs><path class="a" d="M11.077,15l.991-1.416a.75.75,0,0,1,1.229.86l-1.148,1.64a.748.748,0,0,1-.217.206,5.251,5.251,0,0,1-8.5-5.955.741.741,0,0,1,.12-.274L4.7,8.422a.75.75,0,1,1,1.228.86L4.933,10.7l.006,0A3.75,3.75,0,0,0,11.071,15l.006,0Zm5.494-5.335a.748.748,0,0,1-.12.274L15.3,11.578a.75.75,0,1,1-1.228-.86l.86-1.23a3.75,3.75,0,1,0-6.144-4.3l-.86,1.229A.75.75,0,1,1,6.7,5.556l1.148-1.64a.748.748,0,0,1,.217-.206,5.251,5.251,0,0,1,8.5,5.955ZM12.008,7.133a.75.75,0,0,1,.184,1.045L9.037,12.683a.75.75,0,0,1-1.229-.86l3.155-4.506A.75.75,0,0,1,12.008,7.133Z" transform="translate(-2.885 -2.088)"/></svg>