<svg xmlns="http://www.w3.org/2000/svg" width="14" height="13.855" viewBox="0 0 14 13.855"><defs><style>.a{fill:#464b52;}</style></defs><g transform="translate(-3 -3.145)"><path class="a" d="M7,16.4a10.707,10.707,0,0,1-2.2-1.5.6.6,0,0,1-.2-.5l.3-.6h1a4.373,4.373,0,0,0,3.7,1.7,4.528,4.528,0,0,0,2.3-.6,1.6,1.6,0,0,0,.6-1.3,2.5,2.5,0,0,0-.9-2.1h2.1a4.124,4.124,0,0,1,.4,1.7V14l-.6,1.2a3.171,3.171,0,0,1-1.6,1.2,6,6,0,0,1-2.4.6A6.134,6.134,0,0,1,7,16.4ZM6.8,9,6,8.3a2.066,2.066,0,0,1-.5-1.6A2.73,2.73,0,0,1,6,4.9,4.013,4.013,0,0,1,7.6,3.6a6.3,6.3,0,0,1,4.7,0,4,4,0,0,1,1.7,1l.3.7a.557.557,0,0,1-.2.7,1.117,1.117,0,0,1-1,0,3,3,0,0,0-1.2-1,6.191,6.191,0,0,0-2-.4,3.606,3.606,0,0,0-2,.6c-.8.6-1,.8-1,1.5,0,.8.5,1,1.2,1.5a8.477,8.477,0,0,0,1.9,1H6.8Z"/><path class="a" d="M3,10.5V9H17v1.5Z"/></g></svg>