<svg xmlns="http://www.w3.org/2000/svg" width="10.489" height="14" viewBox="0 0 10.489 14"><defs><style>.a{fill:#464b52;}</style></defs><path class="a" d="M9.586,14.633l.021,0A1.18,1.18,0,0,0,10,15.6a1.046,1.046,0,0,0,.274.2h1.474a.6.6,0,1,1,0,1.2H5.3a.6.6,0,0,1,0-1.2h1.15a2.228,2.228,0,0,0,1.005-.334,1.412,1.412,0,0,0,.4-.6l2.416-9.55A1.053,1.053,0,0,0,10,4.5a1.12,1.12,0,0,0-.442-.3H8.15a.6.6,0,0,1,0-1.2h6.443a.6.6,0,1,1,0,1.2H13.4a1.711,1.711,0,0,0-.823.3,2.791,2.791,0,0,0-.623.79L9.586,14.633Z" transform="translate(-4.704 -3)"/></svg>