<svg xmlns="http://www.w3.org/2000/svg" width="19" height="17.5" viewBox="0 0 19 17.5"><defs><style>.a{fill:#464b52;}</style></defs><g transform="translate(-0.5 -2)"><path class="a" d="M11.627,16.5ZM17.5,16.3Zm0-7V8H4.5v8.5H8.841A5.989,5.989,0,0,0,9.626,18H2A1.5,1.5,0,0,1,.5,16.5V3.5A1.5,1.5,0,0,1,2,2H6.5a1.5,1.5,0,0,1,1.06.44L9.122,4H16a1.5,1.5,0,0,1,1.5,1.5v1A1.5,1.5,0,0,1,19,8v2.531A6.027,6.027,0,0,0,17.5,9.3ZM16,6.5v-1H8.5l-2-2H2v13H3V8A1.5,1.5,0,0,1,4.5,6.5Z"/><path class="a" d="M14.5,19.5a5,5,0,1,1,5-5A5,5,0,0,1,14.5,19.5ZM15,14V12H14v2H12v1h2v2h1V15h2V14Z"/></g></svg>