<svg xmlns="http://www.w3.org/2000/svg" width="12" height="14.001" viewBox="0 0 12 14.001"><defs><style>.a{fill:#464b52;}</style></defs><path class="a" d="M10.187,17H5.773a1.861,1.861,0,0,1-1.364-.415A1.828,1.828,0,0,1,4,15.262V4.738a1.8,1.8,0,0,1,.419-1.332A1.9,1.9,0,0,1,5.773,3h4.68a11.222,11.222,0,0,1,1.793.124,3.89,3.89,0,0,1,1.36.478,3.517,3.517,0,0,1,.906.75,3.262,3.262,0,0,1,.808,2.162,3.22,3.22,0,0,1-2.167,3.075Q16,10.468,16,13.01a3.756,3.756,0,0,1-2.3,3.5,6.1,6.1,0,0,1-1.517.377,15.977,15.977,0,0,1-2,.11ZM9.97,10.783H7V14.87h3.069q2.966,0,2.965-2.072a1.671,1.671,0,0,0-.768-1.537,4.408,4.408,0,0,0-2.3-.478ZM7,5.13V8.749H9.606a5.572,5.572,0,0,0,1.69-.2,1.6,1.6,0,0,0,.91-.765,1.671,1.671,0,0,0,.247-.9,1.387,1.387,0,0,0-.778-1.409A6.126,6.126,0,0,0,9.3,5.13H7Z" transform="translate(-4 -3)"/></svg>