<svg xmlns="http://www.w3.org/2000/svg" width="17.701" height="15.2" viewBox="0 0 17.701 15.2"><defs><style>.a{fill:#464b52;}</style></defs><path class="a" d="M7,5.75a.75.75,0,0,0,.75.75h9.5a.75.75,0,0,0,0-1.5H7.75A.75.75,0,0,0,7,5.75ZM3.5,3V8H2V3.7H1v-1H3.5ZM.343,17.857,2.933,14.6H2.92a.6.6,0,1,0-1.04,0H.3a2,2,0,1,1,3.995,0h0a2.193,2.193,0,0,1-.333.988A10.7,10.7,0,0,1,2.719,16.9H4.3v1H.3l.043-.043ZM7,14.75A.75.75,0,0,1,7.75,14h9.5a.75.75,0,0,1,0,1.5H7.75A.75.75,0,0,1,7,14.75Z" transform="translate(-0.299 -2.7)"/></svg>